<?xml version="1.0" encoding="utf-8"?>
<!-- Generator: Adobe Illustrator 27.3.1, SVG Export Plug-In . SVG Version: 6.00 Build 0)  -->
<svg version="1.1" id="Layer_1" xmlns="http://www.w3.org/2000/svg" xmlns:xlink="http://www.w3.org/1999/xlink" x="0px" y="0px"
	 viewBox="0 0 1080 1080" style="enable-background:new 0 0 1080 1080;" xml:space="preserve">
<style type="text/css">
	.st0{fill:#1F3368;}
	.st1{fill:#00B0D5;}
	.st2{fill:none;}
</style>
<g>
	<g>
		<path class="st0" d="M447.63,513.57h6.98l14.83-32.06h21.92l-21.38,39.92l24.54,43.19h-22.9l-16.9-33.7h-7.09v33.7h-18.87V481.5
			h18.87V513.57z"/>
		<path class="st0" d="M520.6,501.24c3.49-2.73,7.85-4.14,14.18-4.14c13.52,0,19.96,7.53,19.96,23.89v43.62H536.3v-41.55
			c0-6.98-2.07-9.82-7.74-9.82c-5.13,0-7.96,2.73-7.96,9.49v41.88h-18.43v-84.2h18.43V501.24z"/>
		<path class="st0" d="M601.63,560.9c-3.93,3.93-9.6,5.02-14.72,5.02c-14.18,0-21.7-9.05-21.7-26.39v-17.01
			c0-17.12,10.03-25.41,22.14-25.41c5.78,0,9.92,1.64,12.87,4.36v-21.05h18.32v84.2h-16.25L601.63,560.9z M600.11,522.73
			c0-6.98-3.27-9.49-8.18-9.49c-5.34,0-8.29,2.73-8.29,10.03v16.58c0,7.31,2.4,9.93,8.18,9.93c5.56,0,8.29-2.4,8.29-9.16V522.73z"/>
		<path class="st0" d="M681.8,543.78c-0.55,14.29-8.18,22.14-25.74,22.14c-18.1,0-26.72-8.07-26.72-26.61v-16.69
			c0-15.7,8.72-25.52,26.72-25.52c17.56,0,26.28,7.96,26.28,25.63v14.29h-34.9v3.82c0,6.87,2.62,10.14,8.51,10.14
			c6.54,0,8.51-2.62,8.94-7.2H681.8z M647.45,523.82H665v-2.29c0-7.09-2.84-10.14-8.72-10.14c-6.22,0-8.83,2.95-8.83,10.58V523.82z"
			/>
		<path class="st0" d="M740.7,505.17c3.38-5.13,9.6-8.07,17.67-8.07c14.61,0,20.94,6.87,20.94,23.89v43.62h-18.32v-41.55
			c0-6.98-2.07-9.82-7.85-9.82c-5.02,0-7.96,2.73-7.96,9.82v41.55h-18.43v-41.33c0-7.2-2.07-10.03-7.74-10.03
			c-5.02,0-7.96,2.73-7.96,9.16v42.21H692.6v-66.2h15.92l0.98,5.23c3.71-4.58,9.38-6.54,16.47-6.54
			C732.41,497.1,737.64,499.5,740.7,505.17z"/>
		<path class="st0" d="M817.49,565.48c-21.05,2.07-26.61-6.43-26.61-26.5v-58.57h18.32v59.33c0,7.85,2.62,9.6,8.29,9.27V565.48z"/>
		<path class="st1" d="M843.77,490.66h-18.43v-16.8h18.43V490.66z M843.77,564.61h-18.43v-66.2h18.43V564.61z"/>
	</g>
	<g>
		<path class="st0" d="M346.19,529.16l28.06,3.66v11.93l-18.71,2.71c-0.12,1.97-0.36,4.16-0.81,6.51c-0.8,4.19-2.03,7.74-3.25,10.57
			c4.61,3.8,9.22,7.59,13.83,11.39l-5.69,9.76l-16.27-6.51c-1.41,2.56-3.49,5.74-6.51,8.95c-2.27,2.42-4.54,4.29-6.51,5.69
			l6.91,14.27l-10.17,6.07l-10.57-13.01c-3.13,1.17-6.67,2.29-10.57,3.25c-2.87,0.7-5.59,1.23-8.13,1.63
			c-0.54,5.69-1.08,11.39-1.63,17.08l-12.2-0.81l-1.63-16.27c-2.82-0.08-6.47-0.46-10.57-1.63c-3.26-0.93-5.99-2.13-8.13-3.25
			l-9.76,13.01l-10.57-5.69l6.51-15.45c-2.56-1.41-5.74-3.49-8.95-6.51c-2.42-2.27-4.29-4.54-5.69-6.51l-13.83,5.69l-6.32-9.56
			l13.64-11.59c-1.57-2.23-3.5-5.5-4.88-9.76c-1-3.1-1.44-5.89-1.63-8.13l-15.45-1.63V533.4l27.56-4.24
			c-4.01,35.84,23.29,65.98,53.77,67.1C319.89,597.42,350.22,566.73,346.19,529.16z"/>
		<path class="st1" d="M215.66,525.5c-0.55,0.46-29.59-20.15-26.84-45.54c0.57-5.3,2.59-11.42,8.13-18.71
			c28.22-37.14,96.08-36.67,100.04-36.6c52.44,0.95,95.1,22.93,95.16,22.77c0.02-0.06-7.03-3.06-19.52-6.51
			c-14.72-4.07-46.57-12.54-87.84-8.13c-14.19,1.51-31.16,3.48-50.42,13.01c-20.06,9.93-27.29,20.48-30.09,25.21
			c-2.33,3.93-6.06,10.24-6.51,18.71C196.68,510.33,216.11,525.11,215.66,525.5z"/>
		<path class="st0" d="M295.11,502.93h40.77l-72.37,75.83l16.85-56.08l-27.38-0.8l11.59-35.81c-1.59-2-8.01-10.52-6.32-21.06
			c2.01-12.57,14.74-23.07,31.07-23.7c-2.98,8.95-5.97,17.91-8.95,26.86l15.8,1.05l9.48-26.33c1.02,0.29,12.29,3.76,15.8,14.75
			c3.71,11.63-4.61,21.3-6.32,23.17c-5.16,5.65-11.49,7.55-14.71,8.22c-0.42,0.09-0.79,0.15-1.09,0.21
			C297.92,493.81,296.51,498.37,295.11,502.93"/>
	</g>
</g>
</svg>
